<?xml version="1.0" encoding="utf-8"?>
<!-- Generator: Adobe Illustrator 25.3.1, SVG Export Plug-In . SVG Version: 6.00 Build 0)  -->
<svg version="1.1" id="Layer_1" xmlns="http://www.w3.org/2000/svg" xmlns:xlink="http://www.w3.org/1999/xlink" x="0px" y="0px"
	 viewBox="0 0 260 50" style="enable-background:new 0 0 260 50;" xml:space="preserve">
<style type="text/css">
	.st0{fill:#FFFFFF;}
	.st1{fill:#CE0E2D;}
	.st2{enable-background:new    ;}
	.st3{fill:#A3A3A3;}
</style>
<g>
	<g>
		<ellipse class="st0" cx="229.3" cy="23.9" rx="22.7" ry="22.7"/>
		<path class="st1" d="M229.4,4.5c-10.7,0-19.4,8.7-19.4,19.4s8.7,19.4,19.4,19.4s19.4-8.7,19.4-19.4S240.1,4.5,229.4,4.5z
			 M240.6,12.3c-0.3,0.3-1.3,1.1-2.3,1.9c-2.2-2-5.1-3.2-8.2-3.3c-0.2-1.3-0.4-2.6-0.4-3C233.8,7.9,237.7,9.6,240.6,12.3z
			 M228.9,7.9c0,0.4-0.2,1.6-0.3,3c-3.1,0.2-5.9,1.5-8,3.4c-1.3-0.9-2.2-1.7-2.4-1.8C220.9,9.7,224.6,8,228.9,7.9z M213.3,24.6
			c0.5,0.1,1.6,0.2,3,0.4c0.2,1.9,0.7,3.7,1.6,5.3V17.5c-1,1.7-1.5,3.7-1.6,5.9c-1.3,0.2-2.5,0.3-3,0.4c0-4.1,1.6-7.9,4.2-10.7
			c0.2,0.2,0.9,1.2,1.8,2.4c-0.2,0.2-0.4,0.5-0.6,0.7h2c1.9,0,3.1,0.1,3.8,0.2s1.2,0.5,1.6,1.1c0.4,0.6,0.6,1.5,0.6,2.9
			c0,1.2-0.1,2-0.4,2.4c-0.3,0.4-0.9,0.7-1.7,0.7c0.8,0.2,1.3,0.5,1.6,0.8s0.4,0.6,0.5,0.9s0.1,1,0.1,2.3v4h-3.7v-5.2
			c0-0.8-0.1-1.3-0.2-1.5s-0.5-0.3-1-0.3v7h-3.1c0.2,0.3,0.5,0.7,0.8,1c-0.8,1-1.5,1.9-1.8,2.4C215.1,32.3,213.5,28.6,213.3,24.6z
			 M218.4,35.7c0.5-0.4,1.4-1,2.4-1.8c2,1.8,4.8,2.9,7.6,3.2c0.2,1.3,0.3,2.4,0.4,3C224.8,39.8,221.1,38.2,218.4,35.7z M229.7,40
			c0.1-0.6,0.2-1.7,0.4-3c2.9-0.1,5.7-1.3,7.8-3c1.1,0.8,2,1.5,2.4,1.8C237.5,38.3,233.7,39.9,229.7,40z M240.8,35.3
			c-0.3-0.3-0.9-1.3-1.8-2.4c0.3-0.4,0.7-0.8,1-1.2h-2.6V21.2L236,31.6h-2.5L232,21.4v10.2h-3.5V16.2h5.2c0.1,0.9,0.3,2,0.5,3.2
			l0.6,3.9l0.9-7.2h4.3c-0.2-0.3-0.5-0.6-0.8-0.9c0.8-1,1.5-2,1.8-2.4c2.7,2.8,4.4,6.8,4.4,11c-0.7-0.1-1.9-0.3-3-0.4
			c-0.1-2.1-0.7-4.1-1.6-5.9v12.7c0.9-1.6,1.5-3.4,1.6-5.4c1.3-0.2,2.5-0.3,3-0.4C245.4,28.7,243.6,32.4,240.8,35.3z M223.3,20.4
			v-0.8c0-0.5-0.1-0.8-0.3-1s-0.5-0.2-0.9-0.2v3.4c0.4,0,0.8-0.1,0.9-0.2C223.2,21.4,223.3,21,223.3,20.4z"/>
	</g>
</g>
<g class="st2">
	<path class="st3" d="M35.6,46.6h-0.8v-5c-0.2,0.2-0.4,0.4-0.7,0.5c-0.3,0.2-0.6,0.3-0.8,0.4v-0.8c0.4-0.2,0.8-0.5,1.2-0.8
		s0.6-0.6,0.7-0.9h0.5V46.6z"/>
	<path class="st3" d="M37.6,43.4c0-0.8,0.1-1.4,0.2-1.8c0.2-0.5,0.4-0.8,0.7-1.1c0.3-0.3,0.7-0.4,1.2-0.4c0.3,0,0.6,0.1,0.9,0.2
		c0.3,0.1,0.5,0.3,0.6,0.6c0.2,0.3,0.3,0.6,0.4,1c0.1,0.4,0.1,0.9,0.1,1.5c0,0.8-0.1,1.4-0.2,1.8c-0.2,0.5-0.4,0.8-0.7,1.1
		c-0.3,0.3-0.7,0.4-1.2,0.4c-0.6,0-1.1-0.2-1.5-0.7C37.8,45.5,37.6,44.7,37.6,43.4z M38.4,43.4c0,1.1,0.1,1.8,0.4,2.1
		c0.2,0.3,0.6,0.5,0.9,0.5s0.7-0.2,0.9-0.5c0.2-0.4,0.4-1.1,0.4-2.1c0-1.1-0.1-1.8-0.4-2.1c-0.2-0.3-0.6-0.5-0.9-0.5
		c-0.4,0-0.7,0.2-0.9,0.5C38.6,41.7,38.4,42.4,38.4,43.4z"/>
	<path class="st3" d="M42.6,43.4c0-0.8,0.1-1.4,0.2-1.8c0.2-0.5,0.4-0.8,0.7-1.1c0.3-0.3,0.7-0.4,1.2-0.4c0.3,0,0.6,0.1,0.9,0.2
		c0.3,0.1,0.5,0.3,0.6,0.6c0.2,0.3,0.3,0.6,0.4,1c0.1,0.4,0.1,0.9,0.1,1.5c0,0.8-0.1,1.4-0.2,1.8c-0.2,0.5-0.4,0.8-0.7,1.1
		c-0.3,0.3-0.7,0.4-1.2,0.4c-0.6,0-1.1-0.2-1.5-0.7C42.8,45.5,42.6,44.7,42.6,43.4z M43.4,43.4c0,1.1,0.1,1.8,0.4,2.1
		c0.2,0.3,0.6,0.5,0.9,0.5s0.7-0.2,0.9-0.5c0.2-0.4,0.4-1.1,0.4-2.1c0-1.1-0.1-1.8-0.4-2.1c-0.2-0.3-0.6-0.5-0.9-0.5
		c-0.4,0-0.7,0.2-0.9,0.5C43.6,41.7,43.4,42.4,43.4,43.4z"/>
	<path class="st3" d="M47.8,41.7c0-0.5,0.1-0.9,0.3-1.2s0.6-0.5,1-0.5c0.4,0,0.7,0.1,1,0.4c0.3,0.3,0.4,0.7,0.4,1.3
		c0,0.5-0.1,1-0.4,1.3c-0.3,0.3-0.6,0.4-1,0.4c-0.4,0-0.7-0.1-1-0.4C47.9,42.8,47.8,42.3,47.8,41.7z M49.2,40.6
		c-0.2,0-0.4,0.1-0.5,0.3s-0.2,0.5-0.2,0.9c0,0.4,0.1,0.7,0.2,0.9c0.1,0.2,0.3,0.3,0.5,0.3c0.2,0,0.4-0.1,0.5-0.3s0.2-0.5,0.2-0.9
		c0-0.4-0.1-0.7-0.2-0.9C49.5,40.7,49.3,40.6,49.2,40.6z M49.2,46.9l3.5-6.8h0.6l-3.5,6.8H49.2z M51.9,45.1c0-0.5,0.1-0.9,0.3-1.2
		c0.2-0.3,0.6-0.5,1-0.5c0.4,0,0.7,0.1,1,0.4c0.3,0.3,0.4,0.7,0.4,1.3c0,0.5-0.1,1-0.4,1.3c-0.3,0.3-0.6,0.4-1,0.4
		c-0.4,0-0.7-0.1-1-0.4C52.1,46.1,51.9,45.7,51.9,45.1z M53.3,44c-0.2,0-0.4,0.1-0.5,0.3c-0.1,0.2-0.2,0.5-0.2,0.9
		c0,0.4,0.1,0.7,0.2,0.9s0.3,0.3,0.5,0.3c0.2,0,0.4-0.1,0.5-0.3c0.1-0.2,0.2-0.5,0.2-0.9c0-0.4-0.1-0.7-0.2-0.9
		C53.7,44.1,53.5,44,53.3,44z"/>
	<path class="st3" d="M58.5,46.6v-6.4h4.7v0.8h-3.8v2h3.6v0.8h-3.6v2.2h4v0.8H58.5z"/>
	<path class="st3" d="M64.4,46.6V42h0.7v0.7c0.1-0.2,0.3-0.4,0.6-0.6c0.2-0.1,0.5-0.2,0.8-0.2c0.3,0,0.6,0.1,0.9,0.2
		c0.2,0.1,0.4,0.3,0.5,0.6c0.4-0.5,0.8-0.8,1.4-0.8c0.5,0,0.8,0.1,1.1,0.4c0.2,0.3,0.4,0.7,0.4,1.2v3.2h-0.8v-2.9
		c0-0.3,0-0.5-0.1-0.7c-0.1-0.1-0.1-0.3-0.3-0.3s-0.3-0.1-0.5-0.1c-0.3,0-0.6,0.1-0.8,0.3c-0.2,0.2-0.3,0.6-0.3,1v2.7h-0.8v-3
		c0-0.4-0.1-0.6-0.2-0.8s-0.3-0.3-0.6-0.3c-0.2,0-0.4,0.1-0.6,0.2c-0.2,0.1-0.3,0.3-0.4,0.5s-0.1,0.6-0.1,1v2.4H64.4z"/>
	<path class="st3" d="M71.8,48.4V42h0.7v0.6c0.2-0.2,0.4-0.4,0.6-0.5c0.2-0.1,0.5-0.2,0.8-0.2c0.4,0,0.8,0.1,1.1,0.3
		s0.5,0.5,0.7,0.9c0.2,0.4,0.2,0.8,0.2,1.2c0,0.5-0.1,0.9-0.3,1.3c-0.2,0.4-0.4,0.7-0.7,0.9c-0.3,0.2-0.7,0.3-1,0.3
		c-0.3,0-0.5-0.1-0.7-0.2s-0.4-0.3-0.5-0.4v2.3H71.8z M72.6,44.3c0,0.6,0.1,1,0.4,1.3s0.5,0.4,0.9,0.4c0.4,0,0.7-0.1,0.9-0.4
		c0.2-0.3,0.4-0.8,0.4-1.4c0-0.6-0.1-1-0.4-1.3c-0.2-0.3-0.5-0.4-0.9-0.4c-0.3,0-0.6,0.2-0.9,0.5C72.7,43.3,72.6,43.7,72.6,44.3z"/>
	<path class="st3" d="M76.8,46.6v-6.4h0.8v6.4H76.8z"/>
	<path class="st3" d="M78.6,44.3c0-0.9,0.2-1.5,0.7-1.9c0.4-0.3,0.9-0.5,1.5-0.5c0.6,0,1.2,0.2,1.6,0.6c0.4,0.4,0.6,1,0.6,1.7
		c0,0.6-0.1,1.1-0.3,1.4c-0.2,0.3-0.4,0.6-0.8,0.8c-0.3,0.2-0.7,0.3-1.1,0.3c-0.7,0-1.2-0.2-1.6-0.6C78.8,45.7,78.6,45.1,78.6,44.3z
		 M79.4,44.3c0,0.6,0.1,1,0.4,1.3c0.3,0.3,0.6,0.4,1,0.4c0.4,0,0.7-0.1,1-0.4s0.4-0.8,0.4-1.4c0-0.6-0.1-1-0.4-1.3
		c-0.3-0.3-0.6-0.4-1-0.4c-0.4,0-0.7,0.1-1,0.4S79.4,43.7,79.4,44.3z"/>
	<path class="st3" d="M83.8,48.4l-0.1-0.7c0.2,0,0.3,0.1,0.5,0.1c0.2,0,0.3,0,0.4-0.1s0.2-0.1,0.3-0.2c0-0.1,0.1-0.3,0.2-0.6
		c0,0,0-0.1,0.1-0.2L83.4,42h0.9l1,2.7c0.1,0.3,0.2,0.7,0.3,1.1c0.1-0.4,0.2-0.7,0.3-1.1l1-2.7h0.8l-1.8,4.7
		c-0.2,0.5-0.3,0.9-0.4,1.1c-0.1,0.3-0.3,0.5-0.5,0.6c-0.2,0.1-0.4,0.2-0.7,0.2C84.2,48.5,84,48.5,83.8,48.4z"/>
	<path class="st3" d="M91.6,45.1l0.8,0.1c-0.1,0.5-0.4,0.8-0.7,1.1s-0.8,0.4-1.3,0.4c-0.7,0-1.2-0.2-1.6-0.6c-0.4-0.4-0.6-1-0.6-1.8
		c0-0.8,0.2-1.4,0.6-1.8s0.9-0.7,1.6-0.7c0.6,0,1.1,0.2,1.5,0.6s0.6,1,0.6,1.8c0,0,0,0.1,0,0.2h-3.5c0,0.5,0.2,0.9,0.4,1.2
		c0.3,0.3,0.6,0.4,1,0.4c0.3,0,0.5-0.1,0.7-0.2S91.4,45.5,91.6,45.1z M89,43.8h2.6c0-0.4-0.1-0.7-0.3-0.9c-0.3-0.3-0.6-0.5-1-0.5
		c-0.4,0-0.7,0.1-0.9,0.4C89.1,43.1,89,43.4,89,43.8z"/>
	<path class="st3" d="M96.6,45.1l0.8,0.1c-0.1,0.5-0.4,0.8-0.7,1.1s-0.8,0.4-1.3,0.4c-0.7,0-1.2-0.2-1.6-0.6c-0.4-0.4-0.6-1-0.6-1.8
		c0-0.8,0.2-1.4,0.6-1.8s0.9-0.7,1.6-0.7c0.6,0,1.1,0.2,1.5,0.6s0.6,1,0.6,1.8c0,0,0,0.1,0,0.2h-3.5c0,0.5,0.2,0.9,0.4,1.2
		c0.3,0.3,0.6,0.4,1,0.4c0.3,0,0.5-0.1,0.7-0.2S96.4,45.5,96.6,45.1z M94,43.8h2.6c0-0.4-0.1-0.7-0.3-0.9c-0.3-0.3-0.6-0.5-1-0.5
		c-0.4,0-0.7,0.1-0.9,0.4C94.1,43.1,94,43.4,94,43.8z"/>
	<path class="st3" d="M100.6,44.3c0-0.9,0.2-1.5,0.7-1.9c0.4-0.3,0.9-0.5,1.5-0.5c0.6,0,1.2,0.2,1.6,0.6c0.4,0.4,0.6,1,0.6,1.7
		c0,0.6-0.1,1.1-0.3,1.4c-0.2,0.3-0.4,0.6-0.8,0.8c-0.3,0.2-0.7,0.3-1.1,0.3c-0.7,0-1.2-0.2-1.6-0.6
		C100.8,45.7,100.6,45.1,100.6,44.3z M101.4,44.3c0,0.6,0.1,1,0.4,1.3c0.3,0.3,0.6,0.4,1,0.4c0.4,0,0.7-0.1,1-0.4s0.4-0.8,0.4-1.4
		c0-0.6-0.1-1-0.4-1.3c-0.3-0.3-0.6-0.4-1-0.4c-0.4,0-0.7,0.1-1,0.4S101.4,43.7,101.4,44.3z"/>
	<path class="st3" d="M106.7,46.6l-1.4-4.7h0.8l0.7,2.7l0.3,1c0,0,0.1-0.4,0.2-1l0.7-2.7h0.8l0.7,2.7l0.2,0.9l0.3-0.9l0.8-2.7h0.8
		l-1.5,4.7h-0.8l-0.7-2.8l-0.2-0.8l-0.9,3.6H106.7z"/>
	<path class="st3" d="M112.4,46.6V42h0.7v0.7c0.3-0.5,0.8-0.8,1.5-0.8c0.3,0,0.5,0.1,0.8,0.2c0.2,0.1,0.4,0.2,0.5,0.4
		s0.2,0.4,0.2,0.6c0,0.1,0,0.4,0,0.8v2.9h-0.8v-2.8c0-0.3,0-0.6-0.1-0.7c-0.1-0.2-0.2-0.3-0.3-0.4c-0.2-0.1-0.3-0.1-0.6-0.1
		c-0.3,0-0.6,0.1-0.9,0.3s-0.4,0.6-0.4,1.2v2.5H112.4z"/>
	<path class="st3" d="M120.6,45.1l0.8,0.1c-0.1,0.5-0.4,0.8-0.7,1.1s-0.8,0.4-1.3,0.4c-0.7,0-1.2-0.2-1.6-0.6
		c-0.4-0.4-0.6-1-0.6-1.8c0-0.8,0.2-1.4,0.6-1.8s0.9-0.7,1.6-0.7c0.6,0,1.1,0.2,1.5,0.6s0.6,1,0.6,1.8c0,0,0,0.1,0,0.2h-3.5
		c0,0.5,0.2,0.9,0.4,1.2c0.3,0.3,0.6,0.4,1,0.4c0.3,0,0.5-0.1,0.7-0.2S120.5,45.5,120.6,45.1z M118,43.8h2.6c0-0.4-0.1-0.7-0.3-0.9
		c-0.3-0.3-0.6-0.5-1-0.5c-0.4,0-0.7,0.1-0.9,0.4C118.1,43.1,118,43.4,118,43.8z"/>
	<path class="st3" d="M125.4,46.6V46c-0.3,0.5-0.7,0.7-1.3,0.7c-0.4,0-0.7-0.1-1-0.3c-0.3-0.2-0.6-0.5-0.7-0.9
		c-0.2-0.4-0.3-0.8-0.3-1.3c0-0.5,0.1-0.9,0.2-1.3c0.2-0.4,0.4-0.7,0.7-0.9c0.3-0.2,0.7-0.3,1-0.3c0.3,0,0.5,0.1,0.8,0.2
		c0.2,0.1,0.4,0.3,0.5,0.5v-2.3h0.8v6.4H125.4z M122.9,44.3c0,0.6,0.1,1,0.4,1.3s0.5,0.4,0.9,0.4c0.3,0,0.6-0.1,0.9-0.4
		c0.2-0.3,0.4-0.7,0.4-1.3c0-0.6-0.1-1.1-0.4-1.4s-0.5-0.4-0.9-0.4c-0.4,0-0.6,0.1-0.9,0.4C123,43.2,122.9,43.7,122.9,44.3z"/>
	<path class="st3" d="M133.6,45.9c-0.3,0.3-0.5,0.5-0.9,0.7c-0.3,0.1-0.6,0.2-1,0.2c-0.7,0-1.2-0.2-1.6-0.7
		c-0.3-0.4-0.5-0.8-0.5-1.2c0-0.4,0.1-0.8,0.4-1.1c0.3-0.3,0.6-0.6,1.1-0.8c-0.3-0.3-0.5-0.6-0.6-0.8c-0.1-0.2-0.1-0.4-0.1-0.6
		c0-0.4,0.2-0.7,0.5-1c0.3-0.3,0.7-0.4,1.1-0.4c0.4,0,0.8,0.1,1.1,0.4c0.3,0.3,0.4,0.6,0.4,1c0,0.6-0.4,1.1-1.2,1.6l1.2,1.5
		c0.1-0.3,0.2-0.6,0.3-0.9l0.8,0.2c-0.1,0.6-0.3,1-0.6,1.4c0.3,0.4,0.6,0.7,1,1l-0.5,0.6C134.2,46.6,133.9,46.3,133.6,45.9z
		 M133.1,45.2l-1.5-1.8c-0.4,0.3-0.7,0.5-0.9,0.7c-0.1,0.2-0.2,0.4-0.2,0.6c0,0.3,0.1,0.5,0.3,0.8c0.2,0.3,0.5,0.4,0.9,0.4
		c0.2,0,0.5-0.1,0.7-0.2C132.7,45.7,132.9,45.5,133.1,45.2z M132,42.5c0.3-0.2,0.6-0.4,0.7-0.5c0.1-0.2,0.2-0.3,0.2-0.5
		c0-0.2-0.1-0.4-0.2-0.5c-0.1-0.1-0.3-0.2-0.5-0.2c-0.2,0-0.4,0.1-0.5,0.2c-0.1,0.1-0.2,0.3-0.2,0.5c0,0.1,0,0.2,0.1,0.3
		c0.1,0.1,0.1,0.2,0.2,0.3L132,42.5z"/>
	<path class="st3" d="M138.1,44.3c0-0.9,0.2-1.5,0.7-1.9c0.4-0.3,0.9-0.5,1.5-0.5c0.6,0,1.2,0.2,1.6,0.6c0.4,0.4,0.6,1,0.6,1.7
		c0,0.6-0.1,1.1-0.3,1.4c-0.2,0.3-0.4,0.6-0.8,0.8c-0.3,0.2-0.7,0.3-1.1,0.3c-0.7,0-1.2-0.2-1.6-0.6
		C138.3,45.7,138.1,45.1,138.1,44.3z M138.9,44.3c0,0.6,0.1,1,0.4,1.3c0.3,0.3,0.6,0.4,1,0.4c0.4,0,0.7-0.1,1-0.4s0.4-0.8,0.4-1.4
		c0-0.6-0.1-1-0.4-1.3c-0.3-0.3-0.6-0.4-1-0.4c-0.4,0-0.7,0.1-1,0.4S138.9,43.7,138.9,44.3z"/>
	<path class="st3" d="M143.4,48.4V42h0.7v0.6c0.2-0.2,0.4-0.4,0.6-0.5c0.2-0.1,0.5-0.2,0.8-0.2c0.4,0,0.8,0.1,1.1,0.3
		s0.5,0.5,0.7,0.9c0.2,0.4,0.2,0.8,0.2,1.2c0,0.5-0.1,0.9-0.3,1.3c-0.2,0.4-0.4,0.7-0.7,0.9c-0.3,0.2-0.7,0.3-1,0.3
		c-0.3,0-0.5-0.1-0.7-0.2c-0.2-0.1-0.4-0.3-0.5-0.4v2.3H143.4z M144.1,44.3c0,0.6,0.1,1,0.4,1.3s0.5,0.4,0.9,0.4
		c0.4,0,0.7-0.1,0.9-0.4c0.2-0.3,0.4-0.8,0.4-1.4c0-0.6-0.1-1-0.4-1.3c-0.2-0.3-0.5-0.4-0.9-0.4c-0.3,0-0.6,0.2-0.9,0.5
		C144.2,43.3,144.1,43.7,144.1,44.3z"/>
	<path class="st3" d="M151.6,45.1l0.8,0.1c-0.1,0.5-0.4,0.8-0.7,1.1s-0.8,0.4-1.3,0.4c-0.7,0-1.2-0.2-1.6-0.6
		c-0.4-0.4-0.6-1-0.6-1.8c0-0.8,0.2-1.4,0.6-1.8s0.9-0.7,1.6-0.7c0.6,0,1.1,0.2,1.5,0.6s0.6,1,0.6,1.8c0,0,0,0.1,0,0.2H149
		c0,0.5,0.2,0.9,0.4,1.2c0.3,0.3,0.6,0.4,1,0.4c0.3,0,0.5-0.1,0.7-0.2S151.5,45.5,151.6,45.1z M149,43.8h2.6c0-0.4-0.1-0.7-0.3-0.9
		c-0.3-0.3-0.6-0.5-1-0.5c-0.4,0-0.7,0.1-0.9,0.4C149.2,43.1,149,43.4,149,43.8z"/>
	<path class="st3" d="M153.4,46.6V42h0.7v0.7c0.2-0.3,0.3-0.5,0.5-0.7c0.2-0.1,0.3-0.2,0.5-0.2c0.3,0,0.5,0.1,0.8,0.3l-0.3,0.7
		c-0.2-0.1-0.4-0.2-0.6-0.2c-0.2,0-0.3,0.1-0.5,0.2c-0.1,0.1-0.2,0.2-0.3,0.4c-0.1,0.3-0.1,0.6-0.1,0.9v2.4H153.4z"/>
	<path class="st3" d="M159.5,46.1c-0.3,0.2-0.6,0.4-0.8,0.5c-0.3,0.1-0.6,0.2-0.9,0.2c-0.5,0-0.9-0.1-1.2-0.4
		c-0.3-0.2-0.4-0.6-0.4-1c0-0.2,0.1-0.4,0.2-0.6c0.1-0.2,0.2-0.3,0.4-0.5c0.2-0.1,0.4-0.2,0.6-0.3c0.2,0,0.4-0.1,0.7-0.1
		c0.6-0.1,1.1-0.2,1.4-0.3c0-0.1,0-0.2,0-0.2c0-0.3-0.1-0.5-0.2-0.7c-0.2-0.2-0.5-0.3-0.9-0.3c-0.4,0-0.6,0.1-0.8,0.2
		c-0.2,0.1-0.3,0.4-0.4,0.7l-0.8-0.1c0.1-0.3,0.2-0.6,0.3-0.8c0.2-0.2,0.4-0.4,0.7-0.5c0.3-0.1,0.7-0.2,1.1-0.2c0.4,0,0.7,0,1,0.1
		s0.4,0.2,0.5,0.4c0.1,0.1,0.2,0.3,0.2,0.5c0,0.1,0,0.4,0,0.7v1.1c0,0.7,0,1.2,0,1.4c0,0.2,0.1,0.4,0.2,0.6h-0.8
		C159.5,46.5,159.5,46.3,159.5,46.1z M159.4,44.3c-0.3,0.1-0.7,0.2-1.3,0.3c-0.3,0-0.6,0.1-0.7,0.2s-0.2,0.1-0.3,0.3
		c-0.1,0.1-0.1,0.2-0.1,0.4c0,0.2,0.1,0.4,0.2,0.5c0.2,0.1,0.4,0.2,0.7,0.2c0.3,0,0.6-0.1,0.8-0.2c0.2-0.1,0.4-0.3,0.5-0.5
		c0.1-0.2,0.1-0.4,0.1-0.8V44.3z"/>
	<path class="st3" d="M163.1,45.9l0.1,0.7c-0.2,0-0.4,0.1-0.6,0.1c-0.3,0-0.5,0-0.7-0.1c-0.2-0.1-0.3-0.2-0.3-0.4
		c-0.1-0.1-0.1-0.5-0.1-0.9v-2.7H161V42h0.6v-1.2l0.8-0.5V42h0.8v0.6h-0.8v2.7c0,0.2,0,0.4,0,0.4c0,0.1,0.1,0.1,0.1,0.2
		c0.1,0,0.2,0.1,0.3,0.1C162.9,46,163,45.9,163.1,45.9z"/>
	<path class="st3" d="M167.1,45.1l0.8,0.1c-0.1,0.5-0.4,0.8-0.7,1.1s-0.8,0.4-1.3,0.4c-0.7,0-1.2-0.2-1.6-0.6
		c-0.4-0.4-0.6-1-0.6-1.8c0-0.8,0.2-1.4,0.6-1.8s0.9-0.7,1.6-0.7c0.6,0,1.1,0.2,1.5,0.6s0.6,1,0.6,1.8c0,0,0,0.1,0,0.2h-3.5
		c0,0.5,0.2,0.9,0.4,1.2c0.3,0.3,0.6,0.4,1,0.4c0.3,0,0.5-0.1,0.7-0.2S167,45.5,167.1,45.1z M164.5,43.8h2.6c0-0.4-0.1-0.7-0.3-0.9
		c-0.3-0.3-0.6-0.5-1-0.5c-0.4,0-0.7,0.1-0.9,0.4C164.7,43.1,164.5,43.4,164.5,43.8z"/>
	<path class="st3" d="M171.9,46.6V46c-0.3,0.5-0.7,0.7-1.3,0.7c-0.4,0-0.7-0.1-1-0.3c-0.3-0.2-0.6-0.5-0.7-0.9
		c-0.2-0.4-0.3-0.8-0.3-1.3c0-0.5,0.1-0.9,0.2-1.3c0.2-0.4,0.4-0.7,0.7-0.9c0.3-0.2,0.7-0.3,1-0.3c0.3,0,0.5,0.1,0.8,0.2
		c0.2,0.1,0.4,0.3,0.5,0.5v-2.3h0.8v6.4H171.9z M169.4,44.3c0,0.6,0.1,1,0.4,1.3s0.5,0.4,0.9,0.4c0.3,0,0.6-0.1,0.9-0.4
		c0.2-0.3,0.4-0.7,0.4-1.3c0-0.6-0.1-1.1-0.4-1.4s-0.5-0.4-0.9-0.4c-0.4,0-0.6,0.1-0.9,0.4C169.6,43.2,169.4,43.7,169.4,44.3z"/>
</g>
<g>
	<g>
		<g>
			<path class="st0" d="M21.6,5.1c-0.1-0.2-0.1-0.4-0.2-0.5h-6.8C14.4,4.9,14.2,5,14,5.1H21.6z"/>
			<path class="st0" d="M21.3,4.5c-0.6-0.9-1.5-1.3-2.8-1.3s-2.7,0.6-3.7,1.3H21.3z"/>
			<path class="st0" d="M21.7,5.7c0-0.1,0-0.3-0.1-0.4h-7.8c-0.1,0.1-0.2,0.3-0.3,0.4H21.7z"/>
			<path class="st0" d="M21.7,6.4c0-0.1,0-0.3,0-0.4h-8.3c-0.1,0.2-0.2,0.4-0.4,0.6h8.4L21.7,6.4z"/>
			<path class="st0" d="M20.8,6.8h-8c-0.1,0.1-0.1,0.3-0.2,0.4c0,0.1-0.1,0.2-0.1,0.3h7L20.8,6.8z"/>
			<path class="st0" d="M15.9,8.1l0.7,0.5h1L19,7.8h-6.4c0,0.3-0.1,0.5,0,0.8h2.7L15.9,8.1z"/>
			<path class="st0" d="M13.1,10.2l1.4-1h-2C12.6,9.5,12.8,9.9,13.1,10.2z"/>
		</g>
		<polygon class="st0" points="24.3,9.9 30.9,9.9 28.3,8.3 		"/>
		<polygon class="st0" points="12.3,11.6 19.3,11.6 15.7,9.1 		"/>
		<path class="st0" d="M13.3,12.2h8.5l-3.6-2.7L25,5.4l2,2.7l-5.3,2.5h6.9l2.7,4C8.8,16,8,28.9,8,28.9C2.9,19.9,13.3,12.2,13.3,12.2
			z M23.9,7.5l-0.2,1.2l1.1-1.2L26,7.8l-1.4-1.5l-2.2,1.2H23.9z"/>
		<path class="st0" d="M171.3,12c0.2-0.7,1.8-5.6,2-6.2s0.8-0.9,1.1-0.9c0.4,0,0.8,0,0.8,0l0.3-0.9h-5.6l-0.3,0.9c0,0,0.3,0,0.8,0
			c0.4,0,0.8,0.2,0.5,0.9s-1.8,5.7-2,6.2c-0.2,0.6-0.8,0.9-1,0.9s-0.6,0-0.6,0l-0.4,1h5.4l0.3-0.9c0,0-0.3,0-0.6,0
			C171.6,13,171.1,12.6,171.3,12z M111.8,12.7c-0.3-0.2-0.9-0.4-0.6-1.5c0.3-1.2,1.8-6.4,2.1-7.3c0.3-0.9,0.9-1.3,1.2-1.3
			c0.3-0.1,0.8-0.1,0.8-0.1l0.4-1.1H110l-5.8,8.2c0,0-0.5-6.7-0.6-7.2s0.2-1,0.2-1h-6.1l-0.4,1c0,0,0.1,0,0.5,0s0.9,0.6,0.7,1.4
			c-0.7,1.7-2.5,6.5-2.7,7.3s-0.9,1.4-1.4,1.6c-0.5,0.2-0.9,0.2-0.9,0.2L93.1,14h5.7l0.4-1.1c0,0-0.6,0.1-0.9-0.1
			c-0.4-0.2-0.9-0.4-0.5-1.6c0.5-1.2,2.8-8,2.8-8l0.6,11.1l2-0.3l7.4-10.7c0,0-2.3,7.4-2.5,8.1c-0.3,0.9-0.9,1.2-1.4,1.4
			c-0.3,0.1-0.9,0.1-0.9,0.1l-0.4,1.1h6.9l0.4-1.1C112.6,12.8,112.1,12.9,111.8,12.7z M85.8,9.6c0,0,2.1-2.2,3.2-3.3
			s1.3-1.6,1.8-1.6h0.5l0.3-0.9h-4.1l-0.3,0.9c0,0,0.3,0,0.7,0c0.5,0,0.2,0.6,0,0.9c-0.3,0.3-2.2,2.6-2.2,2.6S85.2,6.3,85,5.7
			c-0.1-0.6,0.2-1,0.7-1h0.5l0.3-0.9h-4.7l-0.3,0.9c0,0,0.6-0.1,0.8,0.6c0.1,0.6,1.1,4.4,1.1,4.4s-0.6,1.8-0.9,2.5
			c-0.2,0.7-0.5,0.9-1,0.9h-0.8L80.4,14H86l0.4-1c0,0-0.4,0-0.9,0s-0.7-0.4-0.5-1L85.8,9.6z M55.8,3.5c-3.5,0-5.9,2.4-6.8,5.3
			s-0.1,5.4,3.3,5.4c3.4,0,5.8-2.4,6.8-5.4S59.3,3.5,55.8,3.5z M56.5,8.8c-0.6,1.8-1.9,4.2-3.7,4.2c-1.9,0-1.5-2.7-1-4.2
			s1.9-4.1,3.7-4.1S57,7,56.5,8.8z M182.8,4.8c0,0,0.2,0,0.6,0c0.4,0,0.9,0.4,0.6,1c-0.2,0.7-1.4,4.5-1.4,4.5s-1.8-5.1-1.9-5.6
			c-0.1-0.5-0.1-0.8-0.1-0.8h-4.2l-0.3,0.9c0,0,0.2,0,0.5,0s0.8,0.3,0.5,1.1c-0.3,0.9-1.7,5.2-2,6c-0.3,0.8-0.9,1-1.1,1.1
			s-0.7,0.1-0.7,0.1L173,14h4.4l0.3-0.9c0,0-0.3,0-0.6-0.1s-0.8-0.5-0.6-1.1c0.2-0.8,1.9-5.7,1.9-5.7s1.8,5.4,2.2,6.4
			c0.3,1,0.4,1.6,0.4,1.6l1.9-0.3c0,0,2.5-7.7,2.7-8.3c0.2-0.7,0.9-0.9,1.2-0.9s0.5,0,0.5,0l0.3-0.9h-4.4L182.8,4.8z M78.4,12.9
			c-0.2-0.2-0.7-0.9-0.9-1.6s-1-3.7-1-3.7s2.8-2.1,3.5-2.5c0.7-0.3,1-0.3,1-0.3l0.3-0.9h-4.4l-0.3,0.9c0,0,0.4,0,0.7,0
			c0.3,0,0.5,0.4-0.2,0.8c-0.7,0.5-3.4,2.6-3.4,2.6l0.9-2.6c0.2-0.6,0.9-0.9,1-0.9c0.3,0,0.5,0,0.5,0l0.3-0.9h-5.2v0.9h0.6
			c0.5,0,0.7,0.4,0.5,0.9s-1.9,5.7-2.1,6.2s-0.6,0.9-0.9,1C68.8,13,68.4,13,68.4,13l-0.3,0.9h5.5l0.3-0.9c0,0-0.5,0.1-0.9-0.1
			c-0.4-0.2-0.6-0.5-0.4-1c0.2-0.6,0.7-2,0.7-2l0.9-0.8c0,0,1,3.8,1.1,4.3s0,0.6,0,0.6h3.3l0.3-0.9C79.1,13,78.7,13,78.4,12.9z
			 M67.4,10.7c0,0-0.1,0.2-0.2,0.5c-0.1,0.2-1.2,1.8-3,1.8c-1.8,0-2-1.9-1.3-4.1s2-4.1,4-4.1c2.1,0,1.6,2,1.6,2h0.9l1-3.1
			c0,0-0.5,0.2-0.9,0.2c-0.6,0-1-0.3-2.3-0.3c-1.2,0-5.6,0.6-7.2,5.3c-1.5,4.7,2.1,5.3,3.7,5.3c1.6,0,2.6-0.4,3-0.6
			c0.5-0.2,0.8-0.2,0.8-0.2l0.9-2.7H67.4L67.4,10.7z M137.1,4.8c0.3,0,0.5,0,0.5,0l0.3-0.9h-4.3l-0.3,0.9c0,0,0.3,0,0.5,0
			c0.3,0,0.8,0.4,0.6,1.1c-0.3,0.8-1,3.2-1.6,4.8s-2.2,2.1-3.1,2.1s-1.8-0.7-1.4-2c0.5-1.3,1.4-4.4,1.5-4.7c0.2-0.5,0.4-0.8,0.7-0.9
			c0.4-0.3,1.2-0.3,1.2-0.3L132,4h-5.4l-0.3,0.9c0,0,0.2,0,0.5,0s0.7,0.2,0.5,0.9s-0.9,2.7-1.7,5.1c-0.8,2.5,1,3.5,3.5,3.5
			c1.8,0,4.3-1.1,5.1-3.5s1.4-4.4,1.6-4.9C136.1,5.3,136.8,4.8,137.1,4.8z M152.9,11.9c0.2-0.8,2.3-6.8,2.3-6.8s1.1,0,1.6,0.5
			c0.4,0.6,0.2,1.2,0.2,1.2h0.9l0.9-2.9h-9.1l-0.9,2.9h1c0,0,0.4-0.8,1.1-1.3c0.8-0.6,1.7-0.4,1.7-0.4s-2.1,6.4-2.3,6.9
			s-0.6,0.9-0.9,1c-0.4,0.1-1.1,0.2-1.1,0.2L148,14h5.9l0.3-0.9c0,0-0.4,0-0.9-0.1C152.9,12.8,152.7,12.5,152.9,11.9z M45.5,8.7
			C45.2,7.8,45,7.8,45,7.8s0.3,0,0.7-0.1c1.8-0.5,2.8-2.3,3.1-3s0.9-3.3-2.7-3.3h-7.8L38,2.6c0,0,0.1,0,0.6,0s1.1,0.3,0.9,1.1
			c0,0-2.3,7-2.6,7.8s-1,1.2-1.5,1.3s-0.8,0.1-0.8,0.1l-0.4,1H41l0.4-1c0,0-0.1,0-0.7-0.1c-0.6-0.1-1.1-0.4-0.8-1.4
			c0.4-1.1,1.1-3.3,1.1-3.3s0.9,0,0.9,0.3C42,8.7,43,14.1,43,14.1h4.1l0.4-1c0,0-0.5-0.1-0.9-0.5C46.1,12,45.8,9.7,45.5,8.7z
			 M42.8,6.7c-1.2,0-1.3,0-1.3,0l1.2-3.9H44c1.6,0,1.7,1,1.4,1.9C45.3,5.4,44,6.7,42.8,6.7z M149.3,3.9h-4.4l-0.3,0.9
			c0,0,0.2,0,0.6,0c0.4,0,0.9,0.4,0.6,1c-0.2,0.7-1.4,4.5-1.4,4.5s-1.8-5.1-1.9-5.6c-0.1-0.5-0.1-0.8-0.1-0.8h-4.2l-0.3,0.9
			c0,0,0.2,0,0.5,0s0.8,0.3,0.5,1.1c-0.3,0.9-1.7,5.2-2,6c-0.3,0.8-0.9,1-1.1,1.1s-0.7,0.1-0.7,0.1l-0.3,0.9h4.4l0.3-0.9
			c0,0-0.3,0-0.6-0.1s-0.8-0.5-0.6-1.1c0.2-0.8,1.8-5.7,1.8-5.7s1.8,5.4,2.2,6.4c0.3,1,0.4,1.6,0.4,1.6l1.9-0.3c0,0,2.5-7.7,2.7-8.3
			c0.2-0.7,0.9-0.9,1.2-0.9s0.5,0,0.5,0L149.3,3.9z M166.2,12.5c-0.2-0.5-0.3-0.6-0.3-1.2c0-0.6-0.4-5.6-0.4-6.1
			c0-0.4,0.2-1.4,0.2-1.4h-4.5l-0.3,0.9c0,0,0.2,0,0.7,0s0.5,0.5,0.1,1c-0.4,0.6-3.8,5.3-4.3,6c-0.5,0.7-1,1.1-1.4,1.1
			c-0.4,0.1-0.6,0.1-0.6,0.1l-0.3,0.9h4.4l0.3-0.9c0,0-0.5,0-0.8,0s-0.4-0.5-0.1-0.9c0.3-0.4,1.1-1.8,1.1-1.8h3.3c0,0,0,1.2,0,1.7
			c0,0.6-0.7,0.9-0.9,0.9c-0.3,0-0.6,0-0.6,0l-0.3,1h5.3l0.3-1C167,13,166.5,13,166.2,12.5z M163.1,9.2h-2.4l2.4-3.5V9.2z
			 M121.1,3.5c-3.5,0-5.9,2.4-6.8,5.3s-0.1,5.4,3.3,5.4s5.8-2.4,6.8-5.4S124.5,3.5,121.1,3.5z M121.7,8.8c-0.6,1.8-1.9,4.2-3.7,4.2
			c-1.9,0-1.5-2.7-1-4.2s1.9-4.1,3.7-4.1C122.5,4.8,122.3,7,121.7,8.8z"/>
		<path class="st0" d="M88.4,17L78.1,29.1H78l-1.5-12.2H56c-6.7,0-13.4-0.3-20.1,0c-5,0.2-10.1,0.5-14.9,2.4
			c-3.3,1.3-6.4,3.1-8.7,5.9c-2.7,3.3-2.6,7.2-0.5,10.8c0.5,0.8,1,1.6,1,1.6s6.2-1.6,9-2.6c-1-1.6-2.3-3.8-1.2-5.8
			c0,0,3.3,0.1,4.7,0.1h5.4l-1.9,5.8h11L44,22.7H32.9L32,25.2h-9.5c1.1-1.5,3.4-2.6,5.2-3c2.4-0.7,4.7-1,7.2-1.1
			c4.9-0.4,9.9-0.1,14.9-0.1l-4.6,14.1h10.4l4.5-13.9h7.1l3.3,13.9H82l15.4-18L88.4,17L88.4,17z M179.3,17.5
			c-3.3-0.4-6.5-0.4-9.8-0.4c-6.1,0-13.5-0.5-18.7,3c-2.6,1.7-3.3,4.9-4.2,7.8c-1,3.3,0.7,5.4,3.9,6.2c3,0.8,6.2,0.9,9.3,0.9
			c3.5,0,7.1,0.1,10.6-0.1c5.7-0.3,13.1-0.8,15.2-7.1H172c-0.2,0.7-0.5,1.1-0.9,1.7c-0.9,1.3-3.4,1.2-4.8,1.1
			c-1.8,0-4.5,0.4-5.9-0.9c-0.7-1.2,0.5-3.4,0.9-4.5c0.5-1.5,1.1-2.8,2.7-3.3c1.7-0.5,3.4-0.4,5.1-0.3c1.3,0.1,3-0.1,4.2,0.8
			c0.1,0.2,0.2,0.4,0.2,0.6c0,0.4-0.1,0.8-0.3,1h13.2c0.3-0.8,0.6-1.8,0.5-2.6C186.6,18.1,181.8,17.7,179.3,17.5z M134,17.4
			L134,17.4L134,17.4l-7.8,8.6l-2-8.6h-8.4l-14.7,17.7h8l8.1-9.6l1.9,9.5h8l0.1-0.1l8.2-9.5l2,9.7h8l-3.1-17.7
			C142.4,17.4,134,17.4,134,17.4z M103,21.5c-0.7-0.8-1.7-1.1-3-0.9l-0.2,3.5L103,21.5z M103.8,24.8c0.2-1.3-0.1-2.5-0.8-3.3
			l-2.7,3.2L103.8,24.8z M98.7,24.2l1.2-3.6c-1.2,0.2-2.5,0.9-3.5,1.8L98.7,24.2z M101.7,28.7c1-1,1.8-2.3,2.1-3.7c0,0,0,0,0-0.1
			l-3.7,0.9L101.7,28.7z M94,26.2L94,26.2c-0.3,1.4,0,2.6,0.7,3.3l2.7-3.2L94,26.2z M94.1,26l3.6-0.9l-1.5-2.7
			C95.2,23.4,94.4,24.6,94.1,26z M99.3,26.8L98,30.7c1.3-0.2,2.7-0.9,3.8-1.9L99.3,26.8z M94.7,29.6c0.7,0.9,1.8,1.2,3.1,1.1
			l0.3-3.7L94.7,29.6z"/>
	</g>
	<path class="st1" d="M195.4,35l1.2,0.6v-0.9l-1.2-0.6V35z M193.9,24.6l-0.1,3.2l1.7,0.8l0.1,0.1v0.2v0.5v0.3l-0.3-0.1l-4.1-1.9
		l-0.1-0.1v-0.2v-0.5v-0.3l0.3,0.1l1.5,0.7l0.1-3.2l-2.9-1.3l-0.2,6.3l0.9,1.4l5.8,2.7l0.2-6.3l-0.9-1.4L193.9,24.6z M190.4,14.7
		l-0.2,6.3l0.9,1.4l5.8,2.7l0.2-6.3l-0.9-1.4L190.4,14.7z M195.9,20.6V21v0.3l-0.3-0.1l-4.1-1.9l-0.1-0.1V19v-0.5v-0.3l0.3,0.1
		l4.1,1.9l0.1,0.1V20.6z M192.2,7.3V7l0.3,0.1l4.8,2.2l0.1-2.9l-5.9-2.7l-0.9,0.5l-0.1,3.1l1,1.5l0.1,0.2l-0.2,0.1l-1,0.5l-0.1,4.2
		l6.7,3l0.1-2.9l-5-2.3l-0.1-0.1v-0.2v-0.5v-0.3l0.3,0.1l4.8,2.2l0.1-2.7l-5-2.3l-0.1-0.1V7.5L192.2,7.3z"/>
	<g>
		<path class="st0" d="M184.6,33.6c0.2,0,0.4,0.1,0.6,0.2c0.2,0.1,0.3,0.2,0.4,0.4s0.2,0.4,0.2,0.6c0,0.2-0.1,0.4-0.2,0.6
			c-0.1,0.2-0.2,0.3-0.4,0.4s-0.4,0.2-0.6,0.2c-0.2,0-0.4-0.1-0.6-0.2c-0.2-0.1-0.3-0.2-0.4-0.4c-0.1-0.2-0.2-0.4-0.2-0.6
			c0-0.2,0.1-0.4,0.2-0.6c0.1-0.2,0.3-0.3,0.4-0.4C184.2,33.7,184.4,33.6,184.6,33.6z M184.6,33.8c-0.2,0-0.3,0-0.5,0.1
			s-0.3,0.2-0.4,0.4s-0.1,0.3-0.1,0.5s0,0.3,0.1,0.5s0.2,0.3,0.4,0.4c0.2,0.1,0.3,0.1,0.5,0.1s0.3,0,0.5-0.1s0.3-0.2,0.4-0.4
			c0.1-0.2,0.1-0.3,0.1-0.5s0-0.3-0.1-0.5s-0.2-0.3-0.4-0.4C184.9,33.9,184.7,33.8,184.6,33.8z M184,35.4v-1.2h0.4
			c0.1,0,0.3,0,0.3,0c0.1,0,0.1,0.1,0.2,0.1c0,0.1,0.1,0.1,0.1,0.2s0,0.2-0.1,0.2c-0.1,0.1-0.2,0.1-0.3,0.1c0,0,0.1,0,0.1,0.1
			c0.1,0,0.1,0.1,0.2,0.3l0.2,0.2h-0.2l-0.1-0.2c-0.1-0.2-0.2-0.3-0.2-0.3s-0.1,0-0.2,0h-0.1v0.5L184,35.4L184,35.4L184,35.4z
			 M184.2,34.7h0.2c0.1,0,0.2,0,0.2-0.1l0.1-0.1v-0.1l-0.1-0.1c0,0-0.1,0-0.2,0h-0.2V34.7z"/>
	</g>
</g>
</svg>
